:SAMPLES-PER-SECOND 30
:FULLY-SPECIFIED
:DEGREES
197
root  -32.8305 40.6973 -0.554197 8.1405 -76.2914 4.19804
RightUpLeg  -22.9674 -16.8514 -6.074
RightLeg  12.3918 -12.1357 1.73785
RightFoot  2.0968 -0.0656429 0.678414
RightToes  0.00048216 0.542163 -0.142577
Spine  39.54 -0.553873 21.0095
Spine1  15.7442 11.3577 -10.2177
HEad  -27.592 -26.9446 16.3304
LeftShoulder1  9.67404 -15.8072 -43.5864
LeftArm  -2.74439 6.86323 -29.3761
LeftForeArm  39.0458 -40.1223 -6.95721
LeftHand  -0.25398 0.0180481 5.50724
RightShoulder  4.03307 11.3869 20.7244
RightArm  -51.3375 54.2666 -1.15269
RightForeArm  -16.2678 9.39503 3.71988
RightHand  -14.1666 29.2753 -45.2077
LeftUpLeg  -22.1174 -0.712295 -2.35183
LeftLeg  -2.89959 4.87384 -5.41842
LeftFoot  13.0368 -1.91496 8.47718
LeftToes  1.06247e-005 4.65855e-005 -8.18501e-006
198
root  -32.7644 40.6796 -0.400723 7.584 -76.7893 4.56502
RightUpLeg  -23.0177 -17.0314 -6.19847
RightLeg  12.4249 -11.3777 1.6223
RightFoot  2.35926 -0.084729 0.838859
RightToes  0.00048216 0.542163 -0.142577
Spine  39.3469 -0.468228 20.8671
Spine1  15.6137 11.4311 -10.4268
HEad  -27.74 -26.8987 16.5202
LeftShoulder1  9.71658 -15.9163 -43.5273
LeftArm  -2.72806 6.9541 -29.3121
LeftForeArm  39.3157 -40.4397 -7.03338
LeftHand  -0.25398 0.0180481 5.50724
RightShoulder  4.1241 11.5003 21.1538
RightArm  -50.2707 54.4658 -1.68354
RightForeArm  -15.5601 8.06383 3.81439
RightHand  -13.4257 28.4618 -44.0242
LeftUpLeg  -21.9633 -0.743547 -2.55501
LeftLeg  -2.85452 5.40353 -5.51071
LeftFoot  12.9494 -1.98601 8.8391
LeftToes  1.06247e-005 4.65855e-005 -8.18501e-006
199
root  -32.7069 40.6673 -0.226897 6.75797 -77.4507 5.10838
RightUpLeg  -22.9316 -16.9844 -6.46584
RightLeg  12.4205 -10.7451 1.54149
RightFoot  2.66026 -0.118115 1.1094
RightToes  0.00048216 0.542163 -0.142577
Spine  38.9801 -0.195354 20.4161
Spine1  15.5726 11.3676 -10.1326
HEad  -27.9493 -26.9127 15.9275
LeftShoulder1  9.86764 -15.9677 -44.1191
LeftArm  -2.8217 6.94137 -28.8453
LeftForeArm  39.3795 -40.7412 -7.11808
LeftHand  -0.25398 0.0180481 5.50724
RightShoulder  4.11721 11.425 21.2528
RightArm  -48.4257 54.7107 -0.814516
RightForeArm  -15.625 7.44261 4.14174
RightHand  -12.6553 27.6262 -42.7149
LeftUpLeg  -21.6689 -0.787597 -2.77233
LeftLeg  -2.83832 6.11508 -5.60224
LeftFoot  12.811 -2.03445 9.11987
LeftToes  1.06247e-005 4.65855e-005 -8.18501e-006
200
root  -32.6617 40.6624 -0.0359029 5.78563 -78.2231 5.67215
RightUpLeg  -22.6838 -16.826 -6.79986
RightLeg  12.3842 -10.1299 1.49523
RightFoot  3.06337 -0.145129 1.31385
RightToes  0.00048216 0.542163 -0.142577
Spine  38.4431 0.0463575 19.739
Spine1  15.6461 11.1801 -9.91835
HEad  -28.1143 -26.6407 15.0873
LeftShoulder1  9.88597 -15.8738 -44.4303
LeftArm  -3.14845 6.94361 -28.5507
LeftForeArm  39.4145 -41.0429 -7.20535
LeftHand  -0.25398 0.0180481 5.50724
RightShoulder  4.0669 11.0613 21.6217
RightArm  -45.4918 55.0016 1.81901
RightForeArm  -17.013 7.98704 4.80399
RightHand  -12.426 27.3053 -42.3931
LeftUpLeg  -21.2244 -0.816339 -2.98419
LeftLeg  -2.81852 6.93322 -5.6801
LeftFoot  12.6191 -2.06694 9.35248
LeftToes  1.06247e-005 4.65855e-005 -8.18501e-006
201
root  -32.6306 40.6632 0.16902 4.9061 -79.1091 5.97507
RightUpLeg  -22.2036 -16.4495 -7.15405
RightLeg  12.2149 -9.52763 1.46328
RightFoot  3.49328 -0.175321 1.52944
RightToes  0.00048216 0.542163 -0.142577
Spine  37.7459 0.180548 18.8994
Spine1  15.7602 10.8884 -9.9808
HEad  -28.1135 -26.0081 14.4553
LeftShoulder1  9.76647 -15.7073 -44.2666
LeftArm  -3.64066 7.10099 -28.4844
LeftForeArm  39.4892 -41.2934 -7.27563
LeftHand  -0.25398 0.0180481 5.50724
RightShoulder  4.04967 10.6397 22.3771
RightArm  -41.2551 54.7675 6.44267
RightForeArm  -18.3152 9.65625 5.55731
RightHand  -12.961 27.8006 -43.4273
LeftUpLeg  -20.6553 -0.7084 -3.13483
LeftLeg  -2.6561 7.75534 -5.78422
LeftFoot  12.3401 -2.1087 9.67154
LeftToes  1.06247e-005 4.65855e-005 -8.18501e-006
202
root  -32.6105 40.6656 0.384217 4.40202 -80.1918 5.75417
RightUpLeg  -21.5186 -15.8592 -7.44267
RightLeg  11.8938 -8.90188 1.45386
RightFoot  3.8569 -0.229438 1.9164
RightToes  0.00048216 0.542163 -0.142577
Spine  36.8627 0.339908 17.8598
Spine1  15.8853 10.504 -9.9638
HEad  -27.9264 -25.3122 13.3807
LeftShoulder1  9.67875 -15.5558 -44.216
LeftArm  -4.17807 7.33664 -28.2737
LeftForeArm  39.4661 -41.3984 -7.30859
LeftHand  -0.25398 0.0180481 5.50724
RightShoulder  4.10929 10.4475 23.247
RightArm  -35.6912 53.4808 12.5166
RightForeArm  -18.0811 11.916 6.03661
RightHand  -13.9674 28.8488 -45.1467
LeftUpLeg  -20.018 -0.352403 -3.15014
LeftLeg  -2.27508 8.5674 -5.96721
LeftFoot  11.9226 -2.1587 10.1026
LeftToes  1.06247e-005 4.65855e-005 -8.18501e-006
203
root  -32.5946 40.6727 0.601542 4.66924 -81.5777 4.70395
RightUpLeg  -20.7224 -15.0478 -7.60409
RightLeg  11.3781 -8.28466 1.5494
RightFoot  4.33438 -0.274982 2.21334
RightToes  0.00048216 0.542163 -0.142577
Spine  35.7937 0.633184 16.5822
Spine1  16.0173 10.0789 -9.69071
HEad  -27.6027 -24.4721 11.5869
LeftShoulder1  9.65634 -15.4017 -44.4866
LeftArm  -4.72102 7.50676 -27.8178
LeftForeArm  39.2724 -41.3356 -7.30152
LeftHand  -0.25398 0.0180481 5.50724
RightShoulder  4.26263 10.5091 24.2632
RightArm  -29.1042 51.1886 18.9695
RightForeArm  -16.4883 14.1609 6.19457
RightHand  -14.8106 29.7196 -46.5042
LeftUpLeg  -19.3409 0.256392 -2.96457
LeftLeg  -1.83407 9.43829 -6.23474
LeftFoot  11.4079 -2.19704 10.5406
LeftToes  1.06247e-005 4.65855e-005 -8.18501e-006
204
root  -32.5778 40.6888 0.809433 6.41394 -83.2663 2.17567
RightUpLeg  -19.8067 -13.8408 -7.68246
RightLeg  10.464 -7.79484 1.84149
RightFoot  5.02002 -0.278143 2.17279
RightToes  0.00048216 0.542163 -0.142577
Spine  34.5921 1.00433 15.151
Spine1  16.098 9.68146 -9.41165
HEad  -27.1312 -22.801 10.2422
LeftShoulder1  9.5956 -15.2032 -44.6851
LeftArm  -5.27398 7.62926 -27.3731
LeftForeArm  39.0113 -41.1534 -7.2628
LeftHand  -0.25398 0.0180481 5.50724
RightShoulder  4.49564 10.6898 25.5764
RightArm  -21.8446 48.1252 25.0878
RightForeArm  -14.7387 15.9358 6.24306
RightHand  -14.9861 29.8644 -46.8161
LeftUpLeg  -18.6426 1.04417 -2.55943
LeftLeg  -1.44613 10.4044 -6.52878
LeftFoot  10.8802 -2.214 10.8979
LeftToes  1.06247e-005 4.65855e-005 -8.18501e-006
205
root  -32.5554 40.7084 0.995544 10.9829 -85.0418 -3.22821
RightUpLeg  -18.6688 -12.5001 -7.66651
RightLeg  9.20005 -7.30228 2.26491
RightFoot  5.34188 -0.314227 2.38952
RightToes  0.00048216 0.542163 -0.142577
Spine  33.3247 1.30794 13.7309
Spine1  16.0785 9.30997 -9.34589
HEad  -26.666 -20.9273 9.03658
LeftShoulder1  9.46698 -14.9826 -44.6094
LeftArm  -5.81019 7.77689 -27.0505
LeftForeArm  38.7444 -40.8928 -7.20134
LeftHand  -0.25398 0.0180481 5.50724
RightShoulder  4.76558 10.9259 26.9818
RightArm  -14.605 44.3286 30.4816
RightForeArm  -13.3611 16.8226 6.35436
RightHand  -14.5726 29.3925 -46.2249
LeftUpLeg  -17.9432 1.90001 -2.00525
LeftLeg  -0.96193 11.3954 -6.73137
LeftFoot  10.3512 -2.20729 11.1508
LeftToes  1.06247e-005 4.65855e-005 -8.18501e-006
206
root  -32.5169 40.7213 1.14656 20.843 -86.5663 -14.0404
RightUpLeg  -17.4178 -12.0519 -7.33324
RightLeg  8.61569 -6.39982 2.48235
RightFoot  4.47304 -0.471257 3.6293
RightToes  0.00048216 0.542163 -0.142577
Spine  32.028 1.4575 12.4298
Spine1  15.9423 8.8991 -9.44268
HEad  -26.103 -19.0064 7.7625
LeftShoulder1  9.32041 -14.7627 -44.4403
LeftArm  -6.30423 7.90951 -26.7269
LeftForeArm  38.4226 -40.5931 -7.13216
LeftHand  -0.25398 0.0180481 5.50724
RightShoulder  5.05305 11.2276 28.2953
RightArm  -8.69065 39.9171 34.6695
RightForeArm  -11.4343 16.4429 6.66181
RightHand  -13.9799 28.7239 -45.3381
LeftUpLeg  -17.2643 2.68762 -1.42403
LeftLeg  -0.217408 12.2971 -6.72526
LeftFoot  9.79562 -2.17264 11.2833
LeftToes  1.06247e-005 4.65855e-005 -8.18501e-006
207
root  -32.4463 40.7278 1.24917 38.4551 -87.6064 -32.6872
RightUpLeg  -16.5095 -13.7103 -6.35072
RightLeg  10.3748 -4.47578 1.91753
RightFoot  2.39484 -0.631283 5.37845
RightToes  0.00048216 0.542163 -0.142577
Spine  30.7123 1.50789 11.2043
Spine1  15.6412 8.41962 -9.55082
HEad  -25.3817 -17.0964 6.49196
LeftShoulder1  9.16521 -14.525 -44.2689
LeftArm  -6.81076 7.99163 -26.4049
LeftForeArm  38.0826 -40.3516 -7.08175
LeftHand  -0.25398 0.0180481 5.50724
RightShoulder  5.376 11.5623 29.7069
RightArm  -5.20417 35.192 37.3347
RightForeArm  -7.7609 14.7748 7.20505
RightHand  -13.2007 27.7721 -44.1902
LeftUpLeg  -16.5675 3.29964 -0.920942
LeftLeg  0.556926 13.0507 -6.5544
LeftFoot  9.33971 -2.12627 11.2998
LeftToes  1.06247e-005 4.65855e-005 -8.18501e-006
208
root  -32.3343 40.7352 1.29824 62.4288 -88.1542 -57.7202
RightUpLeg  -16.0549 -16.7271 -4.9996
RightLeg  14.9012 -2.07824 0.273052
RightFoot  0.0921337 -0.633294 6.30557
RightToes  0.00048216 0.542163 -0.142577
Spine  29.3957 1.5751 9.96344
Spine1  15.1807 7.90812 -9.52778
HEad  -24.6029 -15.3377 5.72396
LeftShoulder1  8.98846 -14.2588 -44.0558
LeftArm  -7.44339 8.09672 -26.247
LeftForeArm  37.8109 -40.2946 -7.08148
LeftHand  -0.25398 0.0180481 5.50724
RightShoulder  5.71583 11.8354 31.3089
RightArm  -4.16336 30.3073 38.7028
RightForeArm  -2.47209 12.361 7.74954
RightHand  -11.9251 26.1016 -42.2693
LeftUpLeg  -15.744 3.73312 -0.544693
LeftLeg  0.957545 13.6482 -6.42292
LeftFoot  9.1893 -2.09633 11.2254
LeftToes  1.06247e-005 4.65855e-005 -8.18501e-006
209
root  -32.1834 40.7394 1.30206 85.7329 -88.3813 -82.1356
RightUpLeg  -15.2789 -16.4046 -4.93672
RightLeg  20.9465 -2.97501 -1.61891
RightFoot  -1.57168 -0.536033 6.1345
RightToes  0.00048216 0.542163 -0.142577
Spine  28.0816 1.6864 8.73869
Spine1  14.7097 7.41191 -9.33541
HEad  -23.8891 -14.0229 5.65413
LeftShoulder1  8.81578 -13.9803 -43.8896
LeftArm  -8.23751 8.27866 -26.2779
LeftForeArm  37.4868 -40.4785 -7.1552
LeftHand  -0.25398 0.0180481 5.50724
RightShoulder  5.98663 11.9585 32.7697
RightArm  -4.41974 25.1658 39.3663
RightForeArm  2.57568 10.1356 7.97413
RightHand  -10.3432 23.9107 -39.7009
LeftUpLeg  -14.728 4.03846 -0.311316
LeftLeg  0.936316 14.0755 -6.44054
LeftFoot  9.33901 -2.07785 11.0379
LeftToes  1.06247e-005 4.65855e-005 -8.18501e-006
210
root  -31.9957 40.7324 1.27621 102.238 -88.5063 -99.8279
RightUpLeg  -13.94 -13.5178 -5.90503
RightLeg  27.3776 -5.36813 -3.22548
RightFoot  -2.60548 -0.464537 5.84745
RightToes  0.00048216 0.542163 -0.142577
Spine  26.7382 1.76133 7.71746
Spine1  14.3525 6.96707 -9.13628
HEad  -23.1936 -13.2364 5.80478
LeftShoulder1  8.66356 -13.6989 -43.8347
LeftArm  -9.07318 8.52097 -26.3844
LeftForeArm  36.9064 -40.8488 -7.30053
LeftHand  -0.25398 0.0180481 5.50724
RightShoulder  6.13539 11.9206 33.8244
RightArm  -4.90744 19.624 39.7302
RightForeArm  5.48343 8.90759 7.89309
RightHand  -9.0027 21.9204 -37.3233
LeftUpLeg  -13.5749 4.20447 -0.224916
LeftLeg  0.671941 14.3352 -6.53034
LeftFoot  9.63019 -2.05627 10.7571
LeftToes  1.06247e-005 4.65855e-005 -8.18501e-006
211
root  -31.765 40.7097 1.22742 112.695 -88.7029 -111.431
RightUpLeg  -12.4395 -11.3566 -6.76858
RightLeg  33.4412 -5.95417 -4.45317
RightFoot  -3.13186 -0.450425 5.97237
RightToes  0.00048216 0.542163 -0.142577
Spine  25.2996 1.76 6.96129
Spine1  14.0543 6.59797 -9.11633
HEad  -22.3629 -12.6829 5.65824
LeftShoulder1  8.49693 -13.4048 -43.7335
LeftArm  -9.7991 8.8564 -26.5864
LeftForeArm  36.2041 -41.2775 -7.47296
LeftHand  -0.25398 0.0180481 5.50724
RightShoulder  6.20217 11.7808 34.6167
RightArm  -5.45605 13.7135 39.856
RightForeArm  6.05501 8.93593 7.68729
RightHand  -7.97741 20.2425 -35.409
LeftUpLeg  -12.5057 4.1903 -0.302768
LeftLeg  0.293045 14.5132 -6.61071
LeftFoot  10.0169 -2.06022 10.5668
LeftToes  1.06247e-005 4.65855e-005 -8.18501e-006
